# This file uses centimeters as units for non-parametric coordinates.

mtllib tree1.mtl
g default
v 0.000000 -0.503695 0.200000
v 0.000000 -0.500000 0.100000
v 0.000000 -0.500000 0.000000
v 0.000000 -0.500000 -0.100000
v 0.000000 -0.500000 -0.200000
v 0.000000 -0.502612 -0.273380
v 0.000000 -0.400000 0.100000
v 0.000000 -0.400000 0.000000
v 0.000000 -0.400000 -0.100000
v 0.000000 -0.400000 -0.200000
v 0.000000 -0.300000 0.100000
v 0.000000 -0.300000 0.000000
v 0.000000 -0.300000 -0.100000
v 0.000000 -0.300000 -0.200000
v 0.000000 -0.200000 0.100000
v 0.000000 -0.200000 0.000000
v 0.000000 -0.200000 -0.100000
v 0.000000 -0.175508 -0.170735
v 0.000000 -0.100000 0.400000
v 0.000000 -0.100000 0.300000
v 0.000000 -0.100000 0.200000
v 0.000000 -0.100000 0.100000
v 0.000000 -0.100000 0.000000
v 0.000000 -0.100000 -0.100000
v 0.000000 -0.100000 -0.200000
v 0.000000 -0.100000 -0.300000
v 0.000000 -0.100000 -0.400000
v 0.000000 -0.100000 -0.500000
v 0.000000 0.000000 0.400000
v 0.000000 0.000000 0.300000
v 0.000000 0.000000 0.200000
v 0.000000 0.000000 0.100000
v 0.000000 0.000000 0.000000
v 0.000000 0.000000 -0.100000
v 0.000000 0.000000 -0.200000
v 0.000000 0.000000 -0.300000
v 0.000000 0.000000 -0.406081
v 0.000000 0.100000 0.400000
v 0.000000 0.100000 0.300000
v 0.000000 0.100000 0.200000
v 0.000000 0.100000 0.100000
v 0.000000 0.100000 0.000000
v 0.000000 0.100000 -0.100000
v 0.000000 0.100000 -0.200000
v 0.000000 0.100000 -0.300000
v 0.000000 0.100000 -0.400000
v 0.000000 0.100000 -0.500000
v 0.000000 0.200000 0.500000
v 0.000000 0.200000 0.400000
v 0.000000 0.200000 0.300000
v 0.000000 0.200000 0.200000
v 0.000000 0.200000 0.100000
v 0.000000 0.200000 0.000000
v 0.000000 0.200000 -0.100000
v 0.000000 0.200000 -0.200000
v 0.000000 0.200000 -0.300000
v 0.000000 0.200000 -0.400000
v 0.000000 0.200000 -0.500000
v 0.000000 0.300000 0.417397
v 0.000000 0.300000 0.300000
v 0.000000 0.300000 0.200000
v 0.000000 0.300000 0.100000
v 0.000000 0.300000 0.000000
v 0.000000 0.300000 -0.100000
v 0.000000 0.300000 -0.200000
v 0.000000 0.300000 -0.300000
v 0.000000 0.300000 -0.400000
v 0.000000 0.400000 0.300000
v 0.000000 0.400000 0.200000
v 0.000000 0.400000 0.100000
v 0.000000 0.400000 0.000000
v 0.000000 0.400000 -0.100000
v 0.000000 0.400000 -0.200000
v 0.000000 0.400000 -0.300000
v 0.000000 0.400000 -0.400000
v 0.000000 0.500000 0.000000
v -0.200000 -0.499709 0.000000
v -0.100000 -0.500000 0.000000
v 0.000000 -0.500000 0.000000
v 0.100000 -0.500000 0.000000
v 0.200000 -0.500000 0.000000
v 0.300000 -0.495315 0.000000
v -0.100000 -0.400000 0.000000
v 0.000000 -0.400000 0.000000
v 0.100000 -0.400000 0.000000
v 0.200000 -0.400000 0.000000
v -0.100000 -0.300000 0.000000
v 0.000000 -0.300000 0.000000
v 0.100000 -0.300000 0.000000
v 0.200000 -0.300000 0.000000
v -0.300000 -0.200000 0.000000
v -0.200000 -0.115686 0.000000
v -0.100000 -0.200000 0.000000
v 0.000000 -0.200000 0.000000
v 0.100000 -0.200000 0.000000
v 0.200000 -0.200000 0.000000
v 0.300000 -0.200000 0.000000
v -0.400000 -0.100000 0.000000
v -0.300000 -0.100000 0.000000
v -0.100000 -0.100000 0.000000
v 0.000000 -0.100000 0.000000
v 0.100000 -0.100000 0.000000
v 0.200000 -0.100000 0.000000
v 0.300000 -0.100000 0.000000
v 0.400000 -0.100000 0.000000
v 0.500000 -0.100000 0.000000
v -0.500000 0.000000 0.000000
v -0.400000 0.000000 0.000000
v -0.300000 0.000000 0.000000
v -0.200000 0.000000 0.000000
v -0.100000 0.000000 0.000000
v 0.000000 0.000000 0.000000
v 0.100000 0.000000 0.000000
v 0.200000 0.000000 0.000000
v 0.300000 0.000000 0.000000
v 0.409260 0.000000 0.000000
v -0.500000 0.100000 0.000000
v -0.400000 0.100000 0.000000
v -0.300000 0.100000 0.000000
v -0.200000 0.100000 0.000000
v -0.100000 0.100000 0.000000
v 0.000000 0.100000 0.000000
v 0.100000 0.100000 0.000000
v 0.200000 0.100000 0.000000
v 0.300000 0.100000 0.000000
v 0.400000 0.100000 0.000000
v 0.500000 0.100000 0.000000
v -0.500000 0.200000 0.000000
v -0.400000 0.200000 0.000000
v -0.300000 0.200000 0.000000
v -0.200000 0.200000 0.000000
v -0.100000 0.200000 0.000000
v 0.000000 0.200000 0.000000
v 0.100000 0.200000 0.000000
v 0.200000 0.200000 0.000000
v 0.300000 0.200000 0.000000
v 0.400000 0.200000 0.000000
v 0.500000 0.200000 0.000000
v -0.400000 0.300000 0.000000
v -0.300000 0.300000 0.000000
v -0.200000 0.300000 0.000000
v -0.100000 0.300000 0.000000
v 0.000000 0.300000 0.000000
v 0.100000 0.300000 0.000000
v 0.200000 0.300000 0.000000
v 0.300000 0.300000 0.000000
v 0.400000 0.300000 0.000000
v -0.300000 0.400000 0.000000
v -0.200000 0.400000 0.000000
v -0.100000 0.400000 0.000000
v 0.000000 0.400000 0.000000
v 0.100000 0.400000 0.000000
v 0.200000 0.400000 0.000000
v 0.300000 0.400000 0.000000
v 0.400000 0.400000 0.000000
vt 0.300000 0.050000
vt 0.400000 0.000000
vt 0.500000 0.000000
vt 0.600000 0.000000
vt 0.700000 0.000000
vt 0.800000 0.050000
vt 0.400000 0.100000
vt 0.500000 0.100000
vt 0.600000 0.100000
vt 0.700000 0.100000
vt 0.400000 0.200000
vt 0.500000 0.200000
vt 0.600000 0.200000
vt 0.700000 0.200000
vt 0.400000 0.300000
vt 0.500000 0.300000
vt 0.600000 0.300000
vt 0.700000 0.300000
vt 0.100000 0.400000
vt 0.200000 0.400000
vt 0.300000 0.400000
vt 0.400000 0.400000
vt 0.500000 0.400000
vt 0.600000 0.400000
vt 0.700000 0.400000
vt 0.800000 0.400000
vt 0.900000 0.400000
vt 1.000000 0.400000
vt 0.100000 0.500000
vt 0.200000 0.500000
vt 0.300000 0.500000
vt 0.400000 0.500000
vt 0.500000 0.500000
vt 0.600000 0.500000
vt 0.700000 0.500000
vt 0.800000 0.500000
vt 0.900000 0.500000
vt 1.000000 0.500000
vt 0.100000 0.600000
vt 0.200000 0.600000
vt 0.300000 0.600000
vt 0.400000 0.600000
vt 0.500000 0.600000
vt 0.600000 0.600000
vt 0.700000 0.600000
vt 0.800000 0.600000
vt 0.900000 0.600000
vt 1.000000 0.600000
vt 0.000000 0.700000
vt 0.100000 0.700000
vt 0.200000 0.700000
vt 0.300000 0.700000
vt 0.400000 0.700000
vt 0.500000 0.700000
vt 0.600000 0.700000
vt 0.700000 0.700000
vt 0.800000 0.700000
vt 0.900000 0.700000
vt 1.000000 0.700000
vt 0.100000 0.800000
vt 0.200000 0.800000
vt 0.300000 0.800000
vt 0.400000 0.800000
vt 0.500000 0.800000
vt 0.600000 0.800000
vt 0.700000 0.800000
vt 0.800000 0.800000
vt 0.900000 0.800000
vt 0.200000 0.900000
vt 0.300000 0.900000
vt 0.400000 0.900000
vt 0.500000 0.900000
vt 0.600000 0.900000
vt 0.700000 0.900000
vt 0.800000 0.900000
vt 0.900000 0.900000
vt 0.500000 1.000000
vt 0.300000 0.050000
vt 0.400000 0.000000
vt 0.400000 0.100000
vt 0.500000 0.000000
vt 0.500000 0.100000
vt 0.600000 0.000000
vt 0.600000 0.100000
vt 0.700000 0.000000
vt 0.700000 0.100000
vt 0.800000 0.050000
vt 0.400000 0.200000
vt 0.500000 0.200000
vt 0.600000 0.200000
vt 0.700000 0.200000
vt 0.200000 0.300000
vt 0.300000 0.300000
vt 0.400000 0.300000
vt 0.500000 0.300000
vt 0.600000 0.300000
vt 0.700000 0.300000
vt 0.800000 0.300000
vt 0.100000 0.400000
vt 0.200000 0.400000
vt 0.300000 0.400000
vt 0.400000 0.400000
vt 0.500000 0.400000
vt 0.600000 0.400000
vt 0.700000 0.400000
vt 0.800000 0.400000
vt 0.900000 0.400000
vt 1.000000 0.400000
vt 0.100000 0.500000
vt 0.000000 0.500000
vt 0.200000 0.500000
vt 0.300000 0.500000
vt 0.400000 0.500000
vt 0.500000 0.500000
vt 0.600000 0.500000
vt 0.700000 0.500000
vt 0.800000 0.500000
vt 0.900000 0.500000
vt 1.000000 0.500000
vt 0.100000 0.600000
vt 0.000000 0.600000
vt 0.200000 0.600000
vt 0.300000 0.600000
vt 0.400000 0.600000
vt 0.500000 0.600000
vt 0.600000 0.600000
vt 0.700000 0.600000
vt 0.800000 0.600000
vt 0.900000 0.600000
vt 1.000000 0.600000
vt 0.100000 0.700000
vt 0.000000 0.700000
vt 0.200000 0.700000
vt 0.300000 0.700000
vt 0.400000 0.700000
vt 0.500000 0.700000
vt 0.600000 0.700000
vt 0.700000 0.700000
vt 0.800000 0.700000
vt 0.900000 0.700000
vt 1.000000 0.700000
vt 0.100000 0.800000
vt 0.200000 0.800000
vt 0.300000 0.800000
vt 0.400000 0.800000
vt 0.500000 0.800000
vt 0.600000 0.800000
vt 0.700000 0.800000
vt 0.800000 0.800000
vt 0.900000 0.800000
vt 0.200000 0.900000
vt 0.300000 0.900000
vt 0.400000 0.900000
vt 0.500000 0.900000
vt 0.600000 0.900000
vt 0.700000 0.900000
vt 0.800000 0.900000
vt 0.900000 0.900000
vt 0.500000 1.000000
vn 1.000000 0.000000 0.000000
vn 1.000000 0.000000 0.000000
vn 1.000000 0.000000 0.000000
vn 1.000000 0.000000 0.000000
vn 1.000000 0.000000 0.000000
vn 1.000000 0.000000 0.000000
vn 1.000000 0.000000 0.000000
vn 1.000000 0.000000 0.000000
vn 1.000000 0.000000 0.000000
vn 1.000000 0.000000 0.000000
vn 1.000000 0.000000 0.000000
vn 1.000000 0.000000 0.000000
vn 1.000000 0.000000 0.000000
vn 1.000000 0.000000 0.000000
vn 1.000000 0.000000 0.000000
vn 1.000000 0.000000 0.000000
vn 1.000000 0.000000 0.000000
vn 1.000000 0.000000 0.000000
vn 1.000000 0.000000 0.000000
vn 1.000000 0.000000 0.000000
vn 1.000000 0.000000 0.000000
vn 1.000000 0.000000 0.000000
vn 1.000000 0.000000 0.000000
vn 1.000000 0.000000 0.000000
vn 1.000000 0.000000 0.000000
vn 1.000000 0.000000 0.000000
vn 1.000000 0.000000 0.000000
vn 1.000000 0.000000 0.000000
vn 1.000000 0.000000 0.000000
vn 1.000000 0.000000 0.000000
vn 1.000000 0.000000 0.000000
vn 1.000000 0.000000 0.000000
vn 1.000000 0.000000 0.000000
vn 1.000000 0.000000 0.000000
vn 1.000000 0.000000 0.000000
vn 1.000000 0.000000 0.000000
vn 1.000000 0.000000 0.000000
vn 1.000000 0.000000 0.000000
vn 1.000000 0.000000 0.000000
vn 1.000000 0.000000 0.000000
vn 1.000000 0.000000 0.000000
vn 1.000000 0.000000 0.000000
vn 1.000000 0.000000 0.000000
vn 1.000000 0.000000 0.000000
vn 1.000000 0.000000 0.000000
vn 1.000000 0.000000 0.000000
vn 1.000000 0.000000 0.000000
vn 1.000000 0.000000 0.000000
vn 1.000000 0.000000 0.000000
vn 1.000000 0.000000 0.000000
vn 1.000000 0.000000 0.000000
vn 1.000000 0.000000 0.000000
vn 1.000000 0.000000 0.000000
vn 1.000000 0.000000 0.000000
vn 1.000000 0.000000 0.000000
vn 1.000000 0.000000 0.000000
vn 1.000000 0.000000 0.000000
vn 1.000000 0.000000 0.000000
vn 1.000000 0.000000 0.000000
vn 1.000000 0.000000 0.000000
vn 1.000000 0.000000 0.000000
vn 1.000000 0.000000 0.000000
vn 1.000000 0.000000 0.000000
vn 1.000000 0.000000 0.000000
vn 1.000000 0.000000 0.000000
vn 1.000000 0.000000 0.000000
vn 1.000000 0.000000 0.000000
vn 1.000000 0.000000 0.000000
vn 1.000000 0.000000 0.000000
vn 1.000000 0.000000 0.000000
vn 1.000000 0.000000 0.000000
vn 1.000000 0.000000 0.000000
vn 1.000000 0.000000 0.000000
vn 1.000000 0.000000 0.000000
vn 1.000000 0.000000 0.000000
vn 1.000000 0.000000 0.000000
vn 1.000000 0.000000 0.000000
vn 0.000000 0.000000 1.000000
vn 0.000000 0.000000 1.000000
vn 0.000000 0.000000 1.000000
vn 0.000000 0.000000 1.000000
vn 0.000000 0.000000 1.000000
vn 0.000000 0.000000 1.000000
vn 0.000000 0.000000 1.000000
vn 0.000000 0.000000 1.000000
vn 0.000000 0.000000 1.000000
vn 0.000000 0.000000 1.000000
vn 0.000000 0.000000 1.000000
vn 0.000000 0.000000 1.000000
vn 0.000000 0.000000 1.000000
vn 0.000000 0.000000 1.000000
vn 0.000000 0.000000 1.000000
vn 0.000000 0.000000 1.000000
vn 0.000000 0.000000 1.000000
vn 0.000000 0.000000 1.000000
vn 0.000000 0.000000 1.000000
vn 0.000000 0.000000 1.000000
vn 0.000000 0.000000 1.000000
vn 0.000000 0.000000 1.000000
vn 0.000000 0.000000 1.000000
vn 0.000000 0.000000 1.000000
vn 0.000000 0.000000 1.000000
vn 0.000000 0.000000 1.000000
vn 0.000000 0.000000 1.000000
vn 0.000000 0.000000 1.000000
vn 0.000000 0.000000 1.000000
vn 0.000000 0.000000 1.000000
vn 0.000000 0.000000 1.000000
vn 0.000000 0.000000 1.000000
vn 0.000000 0.000000 1.000000
vn 0.000000 0.000000 1.000000
vn 0.000000 0.000000 1.000000
vn 0.000000 0.000000 1.000000
vn 0.000000 0.000000 1.000000
vn 0.000000 0.000000 1.000000
vn 0.000000 0.000000 1.000000
vn 0.000000 0.000000 1.000000
vn 0.000000 0.000000 1.000000
vn 0.000000 0.000000 1.000000
vn 0.000000 0.000000 1.000000
vn 0.000000 0.000000 1.000000
vn 0.000000 0.000000 1.000000
vn 0.000000 0.000000 1.000000
vn 0.000000 0.000000 1.000000
vn 0.000000 0.000000 1.000000
vn 0.000000 0.000000 1.000000
vn 0.000000 0.000000 1.000000
vn 0.000000 0.000000 1.000000
vn 0.000000 0.000000 1.000000
vn 0.000000 0.000000 1.000000
vn 0.000000 0.000000 1.000000
vn 0.000000 0.000000 1.000000
vn 0.000000 0.000000 1.000000
vn 0.000000 0.000000 1.000000
vn 0.000000 0.000000 1.000000
vn 0.000000 0.000000 1.000000
vn 0.000000 0.000000 1.000000
vn 0.000000 0.000000 1.000000
vn 0.000000 0.000000 1.000000
vn 0.000000 0.000000 1.000000
vn 0.000000 0.000000 1.000000
vn 0.000000 0.000000 1.000000
vn 0.000000 0.000000 1.000000
vn 0.000000 0.000000 1.000000
vn 0.000000 0.000000 1.000000
vn 0.000000 0.000000 1.000000
vn 0.000000 0.000000 1.000000
vn 0.000000 0.000000 1.000000
vn 0.000000 0.000000 1.000000
vn 0.000000 0.000000 1.000000
vn 0.000000 0.000000 1.000000
vn 0.000000 0.000000 1.000000
vn 0.000000 0.000000 1.000000
vn 0.000000 0.000000 1.000000
vn 0.000000 0.000000 1.000000
vn 0.000000 0.000000 1.000000
vn 0.000000 0.000000 1.000000
vn 0.000000 0.000000 1.000000
s 1
g pPlane3
usemtl tree1:initialShadingGroup
f 1/1/1 2/2/2 7/7/3
f 2/2/2 3/3/4 8/8/5 7/7/3
f 3/3/4 4/4/6 9/9/7 8/8/5
f 4/4/6 5/5/8 10/10/9 9/9/7
f 5/5/8 6/6/10 10/10/9
f 7/7/3 8/8/5 12/12/11 11/11/12
f 8/8/5 9/9/7 13/13/13 12/12/11
f 9/9/7 10/10/9 14/14/14 13/13/13
f 11/11/12 12/12/11 16/16/15 15/15/16
f 12/12/11 13/13/13 17/17/17 16/16/15
f 13/13/13 14/14/14 18/18/18 17/17/17
f 19/19/19 15/15/16 20/20/20
f 21/21/21 20/20/20 15/15/16 22/22/22
f 15/15/16 16/16/15 23/23/23 22/22/22
f 16/16/15 17/17/17 24/24/24 23/23/23
f 17/17/17 18/18/18 25/25/25 24/24/24
f 28/28/26 27/27/27 18/18/18
f 18/18/18 27/27/27 26/26/28 25/25/25
f 19/19/19 20/20/20 30/30/29 29/29/30
f 20/20/20 21/21/21 31/31/31 30/30/29
f 21/21/21 22/22/22 32/32/32 31/31/31
f 22/22/22 23/23/23 33/33/33 32/32/32
f 23/23/23 24/24/24 34/34/34 33/33/33
f 24/24/24 25/25/25 35/35/35 34/34/34
f 25/25/25 26/26/28 36/36/36 35/35/35
f 26/26/28 27/27/27 37/37/37 36/36/36
f 29/29/30 30/30/29 39/40/38 38/39/39
f 30/30/29 31/31/31 40/41/40 39/40/38
f 31/31/31 32/32/32 41/42/41 40/41/40
f 32/32/32 33/33/33 42/43/42 41/42/41
f 33/33/33 34/34/34 43/44/43 42/43/42
f 34/34/34 35/35/35 44/45/44 43/44/43
f 35/35/35 36/36/36 45/46/45 44/45/44
f 36/36/36 37/37/37 46/47/46 45/46/45
f 37/38/47 47/48/48 46/47/46 37/37/37 27/27/27 28/28/26
f 19/19/19 29/29/30 48/49/49
f 48/49/49 29/29/30 38/39/39 49/50/50
f 38/39/39 39/40/38 50/51/51 49/50/50
f 39/40/38 40/41/40 51/52/52 50/51/51
f 40/41/40 41/42/41 52/53/53 51/52/52
f 41/42/41 42/43/42 53/54/54 52/53/53
f 42/43/42 43/44/43 54/55/55 53/54/54
f 43/44/43 44/45/44 55/56/56 54/55/55
f 44/45/44 45/46/45 56/57/57 55/56/56
f 45/46/45 46/47/46 57/58/58 56/57/57
f 46/47/46 47/48/48 58/59/59 57/58/58
f 48/49/49 49/50/50 59/60/60
f 49/50/50 50/51/51 60/61/61 59/60/60
f 50/51/51 51/52/52 61/62/62 60/61/61
f 51/52/52 52/53/53 62/63/63 61/62/62
f 52/53/53 53/54/54 63/64/64 62/63/63
f 53/54/54 54/55/55 64/65/65 63/64/64
f 54/55/55 55/56/56 65/66/66 64/65/65
f 55/56/56 56/57/57 66/67/67 65/66/66
f 56/57/57 57/58/58 67/68/68 66/67/67
f 57/58/58 58/59/59 67/68/68
f 59/60/60 60/61/61 68/69/69
f 60/61/61 61/62/62 69/70/70 68/69/69
f 61/62/62 62/63/63 70/71/71 69/70/70
f 62/63/63 63/64/64 71/72/72 70/71/71
f 63/64/64 64/65/65 72/73/73 71/72/72
f 64/65/65 65/66/66 73/74/74 72/73/73
f 65/66/66 66/67/67 74/75/75 73/74/74
f 66/67/67 67/68/68 75/76/76 74/75/75
f 68/69/69 69/70/70 76/77/77
f 76/77/77 69/70/70 70/71/71 71/72/72
f 74/75/75 76/77/77 73/74/74
f 72/73/73 73/74/74 76/77/77 71/72/72
s 4
f 77/78/78 78/79/79 83/80/80
f 78/79/79 79/81/81 84/82/82 83/80/80
f 79/81/81 80/83/83 85/84/84 84/82/82
f 80/83/83 81/85/85 86/86/86 85/84/84
f 81/85/85 82/87/87 86/86/86
f 83/80/80 84/82/82 88/89/88 87/88/89
f 84/82/82 85/84/84 89/90/90 88/89/88
f 85/84/84 86/86/86 90/91/91 89/90/90
f 87/88/89 88/89/88 94/95/92 93/94/93
f 88/89/88 89/90/90 95/96/94 94/95/92
f 89/90/90 90/91/91 96/97/95 95/96/94
f 98/99/96 91/92/97 99/100/98
f 99/100/98 91/92/97 92/93/99 92/101/99
f 92/101/99 92/93/99 93/94/93 100/102/100
f 93/94/93 94/95/92 101/103/101 100/102/100
f 94/95/92 95/96/94 102/104/102 101/103/101
f 95/96/94 96/97/95 103/105/103 102/104/102
f 96/97/95 97/98/104 104/106/105 103/105/103
f 105/107/106 104/106/105 97/98/104 106/108/107
f 107/110/108 98/99/96 108/109/109
f 98/99/96 99/100/98 109/111/110 108/109/109
f 99/100/98 92/101/99 110/112/111 109/111/110
f 92/101/99 100/102/100 111/113/112 110/112/111
f 100/102/100 101/103/101 112/114/113 111/113/112
f 101/103/101 102/104/102 113/115/114 112/114/113
f 102/104/102 103/105/103 114/116/115 113/115/114
f 103/105/103 104/106/105 115/117/116 114/116/115
f 104/106/105 105/107/106 116/118/117 115/117/116
f 107/110/108 108/109/109 118/120/118 117/121/119
f 108/109/109 109/111/110 119/122/120 118/120/118
f 109/111/110 110/112/111 120/123/121 119/122/120
f 110/112/111 111/113/112 121/124/122 120/123/121
f 111/113/112 112/114/113 122/125/123 121/124/122
f 112/114/113 113/115/114 123/126/124 122/125/123
f 113/115/114 114/116/115 124/127/125 123/126/124
f 114/116/115 115/117/116 125/128/126 124/127/125
f 115/117/116 116/118/117 126/129/127 125/128/126
f 116/119/128 127/130/129 126/129/127 116/118/117 105/107/106 106/108/107
f 117/121/119 118/120/118 129/131/130 128/132/131
f 118/120/118 119/122/120 130/133/132 129/131/130
f 119/122/120 120/123/121 131/134/133 130/133/132
f 120/123/121 121/124/122 132/135/134 131/134/133
f 121/124/122 122/125/123 133/136/135 132/135/134
f 122/125/123 123/126/124 134/137/136 133/136/135
f 123/126/124 124/127/125 135/138/137 134/137/136
f 124/127/125 125/128/126 136/139/138 135/138/137
f 125/128/126 126/129/127 137/140/139 136/139/138
f 126/129/127 127/130/129 138/141/140 137/140/139
f 128/132/131 129/131/130 139/142/141
f 129/131/130 130/133/132 140/143/142 139/142/141
f 130/133/132 131/134/133 141/144/143 140/143/142
f 131/134/133 132/135/134 142/145/144 141/144/143
f 132/135/134 133/136/135 143/146/145 142/145/144
f 133/136/135 134/137/136 144/147/146 143/146/145
f 134/137/136 135/138/137 145/148/147 144/147/146
f 135/138/137 136/139/138 146/149/148 145/148/147
f 136/139/138 137/140/139 147/150/149 146/149/148
f 137/140/139 138/141/140 147/150/149
f 140/143/142 141/144/143 149/152/150 148/151/151
f 141/144/143 142/145/144 150/153/152 149/152/150
f 142/145/144 143/146/145 151/154/153 150/153/152
f 143/146/145 144/147/146 152/155/154 151/154/153
f 144/147/146 145/148/147 153/156/155 152/155/154
f 145/148/147 146/149/148 154/157/156 153/156/155
f 146/149/148 147/150/149 155/158/157 154/157/156
f 76/159/158 149/152/150 150/153/152 151/154/153
f 154/157/156 76/159/158 153/156/155
f 152/155/154 153/156/155 76/159/158 151/154/153
