# This file uses centimeters as units for non-parametric coordinates.

mtllib mizu.mtl
g default
v -0.866025 0.019852 0.500000
v 0.866025 0.019852 0.500000
v -0.080814 0.019852 -1.039480
v 0.070097 0.019852 0.958784
v 0.866025 0.019852 -0.500000
v -0.866026 0.019852 -0.500000
v 0.000000 0.241588 0.000000
v -0.926995 0.019852 0.070438
v -0.500000 0.019852 0.802106
v 0.000000 0.180328 0.500000
v -0.433013 0.180328 -0.250000
v -0.433013 0.180328 0.250000
v 0.500000 0.019852 0.802106
v 0.926995 0.019852 0.070437
v 0.433013 0.180328 -0.250000
v 0.433013 0.180328 0.250000
v 0.500000 0.019852 -0.866026
v -0.500000 0.019852 -0.866025
v 0.000000 0.180328 -0.500000
v -0.649519 0.105093 -0.375000
v -0.965926 0.019852 -0.258819
v -0.716506 0.112530 0.125000
v -0.433013 0.197107 0.000000
v -0.683013 0.123177 -0.125000
v -0.965926 0.019852 0.258819
v -0.707107 0.019852 0.707107
v -0.466506 0.112530 0.558013
v -0.699760 0.085704 0.404006
v -0.262908 0.019852 0.837176
v 0.000000 0.105093 0.750000
v -0.216506 0.197107 0.375000
v -0.233253 0.123177 0.654006
v 0.000000 0.232714 0.250000
v -0.216506 0.232714 -0.125000
v -0.216506 0.177756 0.125000
v 0.258819 0.019852 0.855458
v 0.466506 0.112530 0.558013
v 0.216506 0.197107 0.375000
v 0.233253 0.123177 0.654006
v 0.707107 0.019852 0.707107
v 0.965926 0.019852 0.258819
v 0.716506 0.112530 0.125000
v 0.699760 0.085704 0.404006
v 0.965926 0.019852 -0.258819
v 0.649519 0.105093 -0.375000
v 0.433013 0.197107 0.000000
v 0.683013 0.123177 -0.125000
v 0.216506 0.232714 -0.125000
v 0.216506 0.232714 0.125000
v 0.632475 0.019852 -0.707107
v 0.250000 0.112530 -0.683013
v 0.216506 0.197107 -0.375000
v 0.449759 0.123177 -0.529006
v 0.258819 0.019852 -0.952188
v -0.258819 0.019852 -1.015244
v -0.250000 0.112530 -0.683013
v 0.000000 0.085704 -0.808013
v -0.632475 0.019852 -0.707107
v -0.216506 0.197107 -0.375000
v -0.449760 0.123177 -0.529006
v 0.000000 0.232714 -0.250000
vt 0.283494 0.500000
vt 0.283494 0.625000
vt 0.175240 0.687500
vt 0.158494 0.562500
vt 0.066987 0.750000
vt 0.017037 0.629409
vt 0.000000 0.500000
vt 0.141747 0.437500
vt 0.283494 0.375000
vt 0.017037 0.370590
vt 0.150120 0.297997
vt 0.066987 0.250000
vt 0.146447 0.146447
vt 0.250000 0.066987
vt 0.266747 0.220994
vt 0.370591 0.017037
vt 0.383373 0.172997
vt 0.500000 0.000000
vt 0.500000 0.125000
vt 0.500000 0.250000
vt 0.391747 0.312500
vt 0.500000 0.375000
vt 0.391747 0.437500
vt 0.500000 0.500000
vt 0.391747 0.562500
vt 0.608253 0.312500
vt 0.616627 0.172997
vt 0.629410 0.017037
vt 0.750000 0.066987
vt 0.733253 0.220994
vt 0.716506 0.375000
vt 0.853553 0.146447
vt 0.849880 0.297997
vt 0.933013 0.250000
vt 0.982963 0.370591
vt 1.000000 0.500000
vt 0.858253 0.437500
vt 0.982963 0.629410
vt 0.841506 0.562500
vt 0.933013 0.750000
vt 0.824759 0.687500
vt 0.716506 0.625000
vt 0.716506 0.500000
vt 0.608253 0.562500
vt 0.608253 0.437500
vt 0.608253 0.687500
vt 0.724880 0.764503
vt 0.853553 0.853553
vt 0.750000 0.933013
vt 0.625000 0.841506
vt 0.500000 0.750000
vt 0.629409 0.982963
vt 0.500000 0.904006
vt 0.500000 1.000000
vt 0.370590 0.982963
vt 0.250000 0.933013
vt 0.375000 0.841506
vt 0.146447 0.853553
vt 0.275120 0.764503
vt 0.391747 0.687500
vt 0.500000 0.625000
vn -0.184407 0.982658 0.019434
vn -0.199596 0.974323 -0.104196
vn -0.260763 0.950690 -0.167904
vn -0.308812 0.950536 -0.033428
vn -0.260763 0.950690 -0.167904
vn -0.276066 0.944112 -0.180113
vn -0.330141 0.941945 -0.061209
vn -0.308812 0.950536 -0.033428
vn -0.330141 0.941945 -0.061209
vn -0.358280 0.933210 0.027462
vn -0.309688 0.949242 0.055070
vn -0.308812 0.950536 -0.033428
vn -0.309688 0.949242 0.055070
vn -0.172635 0.979930 0.099671
vn -0.184407 0.982658 0.019434
vn -0.308812 0.950536 -0.033428
vn -0.309688 0.949242 0.055070
vn -0.358280 0.933210 0.027462
vn -0.318204 0.945479 0.069401
vn -0.264699 0.952058 0.153364
vn -0.318204 0.945479 0.069401
vn -0.280980 0.945904 0.162224
vn -0.221023 0.945923 0.237440
vn -0.264699 0.952058 0.153364
vn -0.221023 0.945923 0.237440
vn -0.166997 0.928811 0.330789
vn -0.190561 0.949691 0.248545
vn -0.264699 0.952058 0.153364
vn -0.190561 0.949691 0.248545
vn -0.172635 0.979930 0.099671
vn -0.309688 0.949242 0.055070
vn -0.264699 0.952058 0.153364
vn -0.190561 0.949691 0.248545
vn -0.166997 0.928811 0.330789
vn -0.136583 0.896846 0.420728
vn -0.119370 0.937335 0.327345
vn -0.136583 0.896846 0.420728
vn 0.019601 0.910055 0.414023
vn -0.018137 0.931547 0.363168
vn -0.119370 0.937335 0.327345
vn -0.018137 0.931547 0.363168
vn -0.009562 0.974323 0.224953
vn -0.109034 0.982658 0.149984
vn -0.119370 0.937335 0.327345
vn -0.109034 0.982658 0.149984
vn -0.172635 0.979930 0.099671
vn -0.190561 0.949691 0.248545
vn -0.119370 0.937335 0.327345
vn -0.109034 0.982658 0.149984
vn -0.009562 0.974323 0.224953
vn -0.056800 0.987221 0.148890
vn -0.179799 0.978211 0.103807
vn -0.056800 0.987221 0.148890
vn -0.063291 0.997326 0.036541
vn -0.157343 0.987221 -0.025255
vn -0.179799 0.978211 0.103807
vn -0.157343 0.987221 -0.025255
vn -0.199596 0.974323 -0.104196
vn -0.184407 0.982658 0.019434
vn -0.179799 0.978211 0.103807
vn -0.184407 0.982658 0.019434
vn -0.172635 0.979930 0.099671
vn -0.109034 0.982658 0.149984
vn -0.179799 0.978211 0.103807
vn 0.117452 0.973394 0.196748
vn -0.009562 0.974323 0.224953
vn -0.018137 0.931547 0.363168
vn 0.121812 0.942646 0.310773
vn -0.018137 0.931547 0.363168
vn 0.019601 0.910055 0.414023
vn 0.142111 0.912187 0.384342
vn 0.121812 0.942646 0.310773
vn 0.142111 0.912187 0.384342
vn 0.170551 0.929897 0.325889
vn 0.191823 0.949839 0.247002
vn 0.121812 0.942646 0.310773
vn 0.191823 0.949839 0.247002
vn 0.220427 0.967066 0.127264
vn 0.117452 0.973394 0.196748
vn 0.121812 0.942646 0.310773
vn 0.191823 0.949839 0.247002
vn 0.170551 0.929897 0.325889
vn 0.221023 0.945923 0.237440
vn 0.264699 0.952058 0.153363
vn 0.221023 0.945923 0.237440
vn 0.280979 0.945904 0.162224
vn 0.318204 0.945479 0.069400
vn 0.264699 0.952058 0.153363
vn 0.318204 0.945479 0.069400
vn 0.358279 0.933211 0.027462
vn 0.309688 0.949242 0.055070
vn 0.264699 0.952058 0.153363
vn 0.309688 0.949242 0.055070
vn 0.220427 0.967066 0.127264
vn 0.191823 0.949839 0.247002
vn 0.264699 0.952058 0.153363
vn 0.309688 0.949242 0.055070
vn 0.358279 0.933211 0.027462
vn 0.330141 0.941945 -0.061209
vn 0.308812 0.950536 -0.033428
vn 0.330141 0.941945 -0.061209
vn 0.276065 0.944112 -0.180113
vn 0.260763 0.950690 -0.167904
vn 0.308812 0.950536 -0.033428
vn 0.260763 0.950690 -0.167904
vn 0.208363 0.970625 -0.120299
vn 0.229115 0.973394 0.003343
vn 0.308812 0.950536 -0.033428
vn 0.229115 0.973394 0.003343
vn 0.220427 0.967066 0.127264
vn 0.309688 0.949242 0.055070
vn 0.308812 0.950536 -0.033428
vn 0.229115 0.973394 0.003343
vn 0.208363 0.970625 -0.120299
vn 0.142033 0.986459 -0.082003
vn 0.182395 0.977570 0.105306
vn 0.142033 0.986459 -0.082003
vn -0.063291 0.997326 0.036541
vn -0.056800 0.987221 0.148890
vn 0.182395 0.977570 0.105306
vn -0.056800 0.987221 0.148890
vn -0.009562 0.974323 0.224953
vn 0.117452 0.973394 0.196748
vn 0.182395 0.977570 0.105306
vn 0.117452 0.973394 0.196748
vn 0.220427 0.967066 0.127264
vn 0.229115 0.973394 0.003343
vn 0.182395 0.977570 0.105306
vn 0.111663 0.973393 -0.200091
vn 0.208363 0.970625 -0.120299
vn 0.260763 0.950690 -0.167904
vn 0.197034 0.951737 -0.235316
vn 0.260763 0.950690 -0.167904
vn 0.276065 0.944112 -0.180113
vn 0.231732 0.938759 -0.255014
vn 0.197034 0.951737 -0.235316
vn 0.231732 0.938759 -0.255014
vn 0.163410 0.945001 -0.283320
vn 0.099779 0.953558 -0.284202
vn 0.197034 0.951737 -0.235316
vn 0.099779 0.953558 -0.284202
vn -0.000000 0.967066 -0.254527
vn 0.111663 0.973393 -0.200091
vn 0.197034 0.951737 -0.235316
vn 0.099779 0.953558 -0.284202
vn 0.163410 0.945001 -0.283320
vn 0.075107 0.946606 -0.313522
vn 0.001198 0.956975 -0.290167
vn 0.075107 0.946606 -0.313522
vn 0.034675 0.958002 -0.284657
vn -0.065515 0.960613 -0.270058
vn 0.001198 0.956975 -0.290167
vn -0.065515 0.960613 -0.270058
vn -0.155994 0.952491 -0.261584
vn -0.102056 0.958482 -0.266265
vn 0.001198 0.956975 -0.290167
vn -0.102056 0.958482 -0.266265
vn -0.000000 0.967066 -0.254527
vn 0.099779 0.953558 -0.284202
vn 0.001198 0.956975 -0.290167
vn -0.102056 0.958482 -0.266265
vn -0.155994 0.952491 -0.261584
vn -0.231732 0.938759 -0.255014
vn -0.197034 0.951737 -0.235316
vn -0.231732 0.938759 -0.255014
vn -0.276066 0.944112 -0.180113
vn -0.260763 0.950690 -0.167904
vn -0.197034 0.951737 -0.235316
vn -0.260763 0.950690 -0.167904
vn -0.199596 0.974323 -0.104196
vn -0.111663 0.973393 -0.200091
vn -0.197034 0.951737 -0.235316
vn -0.111663 0.973393 -0.200091
vn -0.000000 0.967066 -0.254527
vn -0.102056 0.958482 -0.266265
vn -0.197034 0.951737 -0.235316
vn -0.111663 0.973393 -0.200091
vn -0.199596 0.974323 -0.104196
vn -0.157343 0.987221 -0.025255
vn -0.000000 0.977570 -0.210611
vn -0.157343 0.987221 -0.025255
vn -0.063291 0.997326 0.036541
vn 0.142033 0.986459 -0.082003
vn -0.000000 0.977570 -0.210611
vn 0.142033 0.986459 -0.082003
vn 0.208363 0.970625 -0.120299
vn 0.111663 0.973393 -0.200091
vn -0.000000 0.977570 -0.210611
vn 0.111663 0.973393 -0.200091
vn -0.000000 0.967066 -0.254527
vn -0.111663 0.973393 -0.200091
vn -0.000000 0.977570 -0.210611
s off
g mizu:pDisc1
usemtl mizu:initialShadingGroup
f 23/1/1 11/2/2 20/3/3 24/4/4
f 20/3/5 6/5/6 21/6/7 24/4/8
f 21/6/9 8/7/10 22/8/11 24/4/12
f 22/8/13 12/9/14 23/1/15 24/4/16
f 22/8/17 8/7/18 25/10/19 28/11/20
f 25/10/21 1/12/22 26/13/23 28/11/24
f 26/13/25 9/14/26 27/15/27 28/11/28
f 27/15/29 12/9/30 22/8/31 28/11/32
f 27/15/33 9/14/34 29/16/35 32/17/36
f 29/16/37 4/18/38 30/19/39 32/17/40
f 30/19/41 10/20/42 31/21/43 32/17/44
f 31/21/45 12/9/46 27/15/47 32/17/48
f 31/21/49 10/20/50 33/22/51 35/23/52
f 33/22/53 7/24/54 34/25/55 35/23/56
f 34/25/57 11/2/58 23/1/59 35/23/60
f 23/1/61 12/9/62 31/21/63 35/23/64
f 38/26/65 10/20/66 30/19/67 39/27/68
f 30/19/69 4/18/70 36/28/71 39/27/72
f 36/28/73 13/29/74 37/30/75 39/27/76
f 37/30/77 16/31/78 38/26/79 39/27/80
f 37/30/81 13/29/82 40/32/83 43/33/84
f 40/32/85 2/34/86 41/35/87 43/33/88
f 41/35/89 14/36/90 42/37/91 43/33/92
f 42/37/93 16/31/94 37/30/95 43/33/96
f 42/37/97 14/36/98 44/38/99 47/39/100
f 44/38/101 5/40/102 45/41/103 47/39/104
f 45/41/105 15/42/106 46/43/107 47/39/108
f 46/43/109 16/31/110 42/37/111 47/39/112
f 46/43/113 15/42/114 48/44/115 49/45/116
f 48/44/117 7/24/118 33/22/119 49/45/120
f 33/22/121 10/20/122 38/26/123 49/45/124
f 38/26/125 16/31/126 46/43/127 49/45/128
f 52/46/129 15/42/130 45/41/131 53/47/132
f 45/41/133 5/40/134 50/48/135 53/47/136
f 50/48/137 17/49/138 51/50/139 53/47/140
f 51/50/141 19/51/142 52/46/143 53/47/144
f 51/50/145 17/49/146 54/52/147 57/53/148
f 54/52/149 3/54/150 55/55/151 57/53/152
f 55/55/153 18/56/154 56/57/155 57/53/156
f 56/57/157 19/51/158 51/50/159 57/53/160
f 56/57/161 18/56/162 58/58/163 60/59/164
f 58/58/165 6/5/166 20/3/167 60/59/168
f 20/3/169 11/2/170 59/60/171 60/59/172
f 59/60/173 19/51/174 56/57/175 60/59/176
f 59/60/177 11/2/178 34/25/179 61/61/180
f 34/25/181 7/24/182 48/44/183 61/61/184
f 48/44/185 15/42/186 52/46/187 61/61/188
f 52/46/189 19/51/190 59/60/191 61/61/192
